<svg viewBox="-200 -200 954 971" fill="none" xmlns="http://www.w3.org/2000/svg">
<g id="manu_test">
<g id="tete">
<path id="path8" fill-rule="evenodd" clip-rule="evenodd" d="M255.816 140.696L255.697 155.543C255.752 158.729 257.143 161.99 262.825 163.841C262.825 163.841 293.053 163.859 293.357 163.841C300.541 163.454 301.287 157.007 301.416 155.92C301.738 153.056 301.738 141.562 301.416 140.696" fill="#DD9974"/>
<g id="criniere">
<path id="path1" d="M247.389 21.4621C242.664 22.0239 238.824 25.9382 235.923 28.3144C229.411 33.8589 227.21 39.4771 225.653 42.323C223.636 46.0162 222.586 50.6489 223.443 57.0039C223.903 60.4669 224.511 65.2469 225.589 69.2533C226.418 72.3203 227.33 75.4241 228.877 78.2055C230.811 81.6593 232.082 81.8527 233.104 84.2197C234.854 88.2998 234.992 93.2088 237.617 97.6296C238.649 99.3519 238.336 93.1443 238.115 90.5563C237.918 87.9541 237.804 85.3463 237.774 82.7369C237.686 78.6321 237.307 74.5387 236.641 70.4875C235.812 65.7258 235.324 62.1247 233.068 57.842C232.082 55.9723 232.368 48.4661 235.333 43.8426C238.851 38.0311 242.701 33.1958 247.73 28.8854C246.284 26.104 247.638 21.4345 247.398 21.4621H247.389Z" fill="#46301A" stroke="black" stroke-width="0.976271"/>
<path id="path2" d="M278.473 10.4652C274.513 10.456 270.553 10.9073 266.684 11.6625C262.218 12.5375 257.603 13.6335 253.643 16.0097C250.99 17.6031 248.191 19.6201 246.827 22.5028C246.33 23.5528 246.468 25.0356 246.708 26.279C246.844 26.9815 247.038 27.6716 247.288 28.342L247.371 28.4802C247.389 28.5447 247.408 28.6091 247.435 28.646C247.527 28.7657 247.619 28.821 247.73 28.8854C247.96 29.0236 248.273 29.1525 248.669 29.2815C249.471 29.5578 250.594 29.8249 251.829 29.9906C254.315 30.3406 257.262 30.3314 258.92 28.8394C258.994 28.7657 259.04 28.7473 259.049 28.7473L259.16 28.867C259.326 29.0881 259.547 29.6038 259.832 30.2209C260.508 31.8931 261.728 33.2885 263.295 34.1812C267.651 36.4838 271.013 40.0849 275.388 41.2362C280.177 42.498 284.598 44.036 290.253 43.4006C293.827 42.9953 297.437 43.3913 302.06 40.748C305.652 38.7034 308.075 34.9825 309.428 33.1958C310.847 33.1037 312.118 33.9234 313.509 35.1851C314.945 36.493 316.465 38.2429 318.344 39.6981C321.448 42.1203 322.433 46.6333 323.787 50.5384C324.865 53.6514 324.109 57.0131 322.765 61.4431C321.485 65.6337 319.412 69.9625 319.799 74.4939C320.508 82.7185 319.173 90.9615 318.666 97.1046C318.427 97.2428 318.648 97.381 318.666 97.1046C318.252 98.7901 319.486 99.4532 320.324 98.0717C320.987 96.9665 323.548 92.0575 323.483 88.8616C323.455 87.1946 325.472 82.5803 326.78 81.1251C327.48 80.3423 328.346 79.6239 328.742 78.5463C330.991 72.3929 332.593 66.022 333.522 59.5366C334.065 54.9961 334.047 50.17 332.601 45.786C330.999 40.9322 327.664 36.7877 324.367 32.9747C320.739 28.8913 316.604 25.2886 312.063 22.2542C307.156 18.8944 301.881 16.1071 296.341 13.9467C291.884 12.1701 287.194 11.0501 282.415 10.6218C281.104 10.5131 279.789 10.4578 278.473 10.456V10.4652Z" fill="#46301A"/>
<path id="path3" d="M318.675 97.1046C319.173 90.9615 320.517 82.7185 319.799 74.4938C319.412 69.9625 321.485 65.6337 322.765 61.4431C324.109 57.0223 324.865 53.6514 323.787 50.5384C322.433 46.6333 321.448 42.1203 318.353 39.6981C316.465 38.2429 314.945 36.493 313.509 35.1851C312.118 33.9234 310.838 33.1037 309.438 33.1958C308.075 34.9825 305.643 38.7034 302.06 40.748C297.437 43.3913 293.827 42.9953 290.253 43.4005C284.607 44.036 280.177 42.498 275.388 41.2362C271.013 40.0849 267.651 36.4745 263.295 34.1812C261.728 33.2885 260.508 31.8931 259.832 30.2209C259.547 29.6038 259.326 29.088 259.16 28.867C259.095 28.7749 259.049 28.7565 259.049 28.7565C259.04 28.7565 258.994 28.7657 258.92 28.8486C257.262 30.3222 254.315 30.3406 251.829 29.9906C250.757 29.8481 249.699 29.6108 248.669 29.2815C248.344 29.1805 248.029 29.0478 247.73 28.8854C247.616 28.8272 247.516 28.7456 247.435 28.646C247.408 28.6091 247.389 28.5447 247.371 28.4802L247.279 28.342L247.095 27.8631C246.966 27.4579 246.818 26.896 246.708 26.279C246.468 25.0356 246.33 23.5528 246.827 22.5028C248.191 19.6201 250.99 17.6031 253.643 16.0097C257.603 13.6335 262.208 12.5375 266.675 11.6625C270.543 10.9073 274.513 10.456 278.464 10.4652C279.79 10.4652 281.107 10.5205 282.424 10.631C287.199 11.0572 291.887 12.1741 296.341 13.9466C301.881 16.1071 307.156 18.8944 312.063 22.2542C316.604 25.2886 320.739 28.8913 324.367 32.9747C327.664 36.7877 330.999 40.9322 332.601 45.786C334.047 50.17 334.066 54.9961 333.522 59.5366C332.59 66.0223 330.985 72.3933 328.733 78.5463C328.346 79.6239 327.489 80.3423 326.78 81.1251C325.472 82.5803 323.455 87.1946 323.483 88.8616C323.548 92.0575 320.987 96.9665 320.324 98.0717C319.486 99.4532 318.252 98.7901 318.666 97.1046H318.675ZM318.675 97.1046C318.427 97.2428 318.648 97.3809 318.675 97.1046Z" stroke="black" stroke-width="0.976271"/>
</g>
<g id="oreille_droite">
<path id="path4" fill-rule="evenodd" clip-rule="evenodd" d="M230.765 80.9685L227.984 79.6147C227.31 79.5197 226.624 79.578 225.977 79.7854C225.329 79.9927 224.737 80.3436 224.244 80.812C222.734 82.6816 222.181 83.9434 222.218 85.8131C221.819 89.3988 222.158 93.0282 223.213 96.4784C223.811 100.107 225.386 103.791 227.947 107.53C229.208 109.21 231.069 110.338 233.141 110.68C235.37 110.551 236.844 109.944 237.562 108.875L235.923 93.8719C233.519 84.9289 234.053 86.2551 234.062 86.9643C234.771 87.4525 233.031 83.6211 230.765 80.9685Z" fill="#DD9974" stroke="black" stroke-width="0.976271" stroke-miterlimit="3.2" stroke-linecap="round" stroke-linejoin="round"/>
<path id="path5" d="M225.211 85.7394C225.396 84.6342 225.801 84.146 226.409 84.275C228.214 84.0723 229.973 86.5314 231.677 91.6707C230.111 92.5917 229.374 94.3232 229.255 95.2442C229.162 99.094 230.185 100.651 232.57 101.516" stroke="#4C3B2A" stroke-width="1.63019" stroke-miterlimit="3.2" stroke-linecap="round" stroke-linejoin="round"/>
</g>
<g id="oreille_gauche">
<path id="path6" fill-rule="evenodd" clip-rule="evenodd" d="M327.941 79.9278C330.372 78.6844 332.454 79.0068 333.559 80.8949C334.425 82.3685 336.055 84.1552 335.364 90.0036C335.283 96.1764 333.288 102.172 329.654 107.162C329.001 108.166 328.125 109.007 327.095 109.618C326.065 110.23 324.908 110.597 323.713 110.69C322.999 110.766 322.277 110.682 321.599 110.443C320.922 110.204 320.307 109.816 319.799 109.308L320.315 98.0717L323.152 91.3299L323.778 87.2498L325.997 82.2119L327.941 79.9278Z" fill="#DD9974" stroke="black" stroke-width="0.976271" stroke-miterlimit="3.2" stroke-linecap="round" stroke-linejoin="round"/>
<path id="path7" d="M324.33 101.774C325.592 101.866 326.771 100.743 327.867 98.3664C328.154 97.4909 328.258 96.5658 328.172 95.6484C328.087 94.7311 327.814 93.8411 327.37 93.0338L325.822 91.7443C326.559 87.9958 328.217 85.417 330.777 83.9894C331.975 84.5697 332.435 85.1499 332.141 85.7301" stroke="#4C3B2A" stroke-width="1.63019" stroke-miterlimit="3.2" stroke-linecap="round" stroke-linejoin="round"/>
</g>
<g id="face">
<path id="path10" fill-rule="evenodd" clip-rule="evenodd" d="M236.706 96.5704C237.166 101.406 237.341 104.583 237.811 112.928C237.719 118.085 239.073 123.142 241.854 128.078C245.409 132.619 250.06 136.828 255.816 140.696C258.792 142.749 261.475 145.197 263.792 147.972C268.245 150.524 273.295 151.849 278.427 151.813C284.036 151.997 288.218 151.417 290.962 150.063C291.248 149.759 294.794 148.221 298.054 144.463C298.92 143.459 299.436 143.026 301.756 141.258C306.711 137.592 310.58 134.369 313.334 131.587C316.266 128.538 318.181 124.654 318.814 120.471C319.679 111.721 320.103 106.609 320.324 98.0809L320.352 93.3561C320.195 85.0947 319.228 75.1017 321.144 66.2784C321.862 62.972 323.805 59.9051 324.045 56.4421C324.183 54.4803 324.201 52.4725 323.787 50.5476C323.154 47.4013 321.936 44.402 320.195 41.7059C318.464 39.1271 313.509 35.1944 313.509 35.1944C312.026 33.7852 310.672 33.1221 309.438 33.205C309.438 33.205 306.527 37.6995 304.354 39.1271C300.237 41.8072 295.144 42.9953 290.253 43.4098C285.878 43.7782 281.375 43.0598 277.193 41.7335C273.096 40.3537 269.252 38.3162 265.809 35.7009C263.203 33.776 261.923 30.0643 258.92 28.8486C256.176 27.7434 251.092 27.3013 247.73 28.8946C241.872 31.6577 238.225 38.0587 235.342 43.8611C233.485 47.4644 232.536 51.4673 232.579 55.521C232.708 59.3156 235.112 62.7049 235.913 66.4166C236.853 70.7638 237.654 79.6515 237.654 79.6515C237.562 79.6515 237.857 86.9275 238.115 90.5655C238.253 92.6193 236.706 96.5797 236.706 96.5797V96.5704Z" fill="#DD9974" stroke="black" stroke-width="0.976271" stroke-miterlimit="3.2" stroke-linecap="round" stroke-linejoin="round"/>
<path id="path11" d="M273.555 78.2608C275.029 80.0291 274.587 80.987 274.347 82.3501C273.426 87.434 274.568 94.1206 273.03 98.0717C272.293 99.9782 269.125 99.8769 268.711 101.912C268.425 103.358 268.029 105.2 269.162 105.919C270.672 106.867 272.634 106.692 273.666 107.623C275.158 108.976 276.926 110.533 278.943 110.57C280.029 110.535 281.094 110.267 282.068 109.786C283.042 109.305 283.902 108.62 284.589 107.779C285.584 106.25 288.291 106.517 289.314 105.016C290.207 103.699 289.01 102.207 288.503 100.779C288.043 99.4716 286.274 98.4585 285.998 98.0717" stroke="black" stroke-width="0.976271" stroke-miterlimit="3.2" stroke-linecap="round" stroke-linejoin="round"/>
</g>
<g id="bouche">
<path id="path14" fill-rule="evenodd" clip-rule="evenodd" d="M279.781 120.646C288.3 120.729 297.833 121.272 297.833 123.888C297.833 126.761 288.374 133.687 279.376 133.687C270.378 133.687 260.504 127.074 260.504 124.201C260.504 120.231 276.502 120.618 279.781 120.646Z" fill="#52110F"/>
<path id="path15" fill-rule="evenodd" clip-rule="evenodd" d="M289.498 131.191C286.344 132.744 282.89 133.592 279.376 133.678C275.637 133.678 271.75 132.545 268.48 131.007C270.967 130.215 274.624 129.718 278.713 129.718C283.115 129.718 287.02 130.289 289.498 131.191Z" fill="white"/>
<path id="path16" fill-rule="evenodd" clip-rule="evenodd" d="M279.781 120.646C284.202 120.692 288.899 120.857 292.399 121.373C291.45 123.197 285.887 124.606 279.173 124.606C272.358 124.606 266.749 123.16 265.911 121.29C270.884 120.48 277.755 120.636 279.781 120.646Z" fill="white"/>
<path id="path17" fill-rule="evenodd" clip-rule="evenodd" d="M273.417 128.041H284.93C285.224 128.042 285.515 128.11 285.779 128.24C286.044 128.37 286.275 128.558 286.456 128.791C286.637 129.023 286.763 129.294 286.824 129.582C286.885 129.87 286.88 130.169 286.808 130.454C284.552 129.994 281.743 129.718 278.713 129.718C276.06 129.718 273.592 129.92 271.501 130.289L271.474 129.985C271.474 128.916 272.349 128.041 273.408 128.041H273.417Z" fill="#E8645F"/>
<path id="path18" fill-rule="evenodd" clip-rule="evenodd" d="M288.558 135.805C281.973 138.845 275.526 139.121 269.272 135.898C275.664 136.909 282.177 136.878 288.558 135.805Z" fill="#DBAC93"/>
</g>
<g id="oeil_gauche">
<path id="path12" d="M312.136 78.5555C312.901 77.0635 311.298 74.9912 310.442 73.582C309.032 71.2427 306.555 69.4651 303.995 68.5349C301.535 67.6323 298.745 67.9731 296.148 68.2586C294.444 68.4336 292.74 68.8296 291.174 69.5112C289.885 70.0638 288.54 70.6901 287.637 71.7584C286.919 72.6058 285.934 74.4846 286.44 75.4793C286.836 76.2806 288.135 75.8477 288.954 75.4793C290.124 74.9544 295.346 72.7163 296.848 73.1584C299.136 72.8374 301.463 72.9309 303.718 73.4347C303.718 73.4347 307.154 74.853 308.618 75.9583C309.493 76.6214 309.889 77.8463 310.865 78.3437C311.344 78.5923 311.878 79.0344 312.127 78.5555H312.136Z" fill="#4C3B2A" stroke="#503C2C" stroke-width="0.110521" stroke-miterlimit="3.2" stroke-linecap="round" stroke-linejoin="round"/>
<path id="path19" d="M305.901 84.1368C305.864 85.3525 304.75 86.3472 303.829 87.1301C302.527 88.2494 300.944 88.9915 299.251 89.2761C297.087 89.5984 294.646 89.4234 292.74 88.355C291.082 87.4156 289.314 85.8223 289.093 83.9158C288.908 82.3132 290.041 80.6462 291.239 79.5594C292.904 78.0586 295.075 77.2427 297.317 77.2753C299.611 77.3674 301.839 78.6568 303.543 80.2041C304.676 81.2264 305.947 82.5987 305.901 84.1368Z" fill="#F4E3D7" fill-opacity="0.91" stroke="black" stroke-width="0.976271" stroke-miterlimit="3.2" stroke-linecap="round" stroke-linejoin="round"/>
<path id="path20" d="M297.142 87.4617C296.591 87.4879 296.04 87.4019 295.522 87.2089C295.005 87.016 294.532 86.72 294.133 86.339C293.733 85.9579 293.415 85.4998 293.198 84.9922C292.98 84.4847 292.868 83.9383 292.868 83.3862C292.868 82.8341 292.98 82.2877 293.198 81.7802C293.415 81.2726 293.733 80.8144 294.133 80.4334C294.532 80.0524 295.005 79.7564 295.522 79.5635C296.04 79.3705 296.591 79.2845 297.142 79.3107C298.19 79.3605 299.178 79.8117 299.901 80.5705C300.625 81.3293 301.028 82.3376 301.028 83.3862C301.028 84.4348 300.625 85.4431 299.901 86.2019C299.178 86.9607 298.19 87.4119 297.142 87.4617Z" fill="#6C6753" fill-opacity="0.91" stroke="black" stroke-width="0.994691" stroke-miterlimit="3.2" stroke-linecap="round" stroke-linejoin="round"/>
<path id="path21" d="M297.197 85.021C297.63 85.021 298.044 84.8492 298.35 84.5435C298.656 84.2378 298.828 83.8232 298.828 83.3908C298.828 82.9585 298.656 82.5438 298.35 82.2381C298.044 81.9324 297.63 81.7606 297.197 81.7606C296.765 81.7606 296.35 81.9324 296.045 82.2381C295.739 82.5438 295.567 82.9585 295.567 83.3908C295.567 83.8232 295.739 84.2378 296.045 84.5435C296.35 84.8492 296.765 85.021 297.197 85.021Z" fill="#241C1C" fill-opacity="0.91" stroke="black" stroke-width="0.976271" stroke-miterlimit="3.2" stroke-linecap="round" stroke-linejoin="round"/>
<path id="path22" d="M306.804 84.2013C306.767 83.5658 306.104 82.6356 305.68 81.8988C305.392 81.4139 305.075 80.9465 304.731 80.4988C304.391 80.0383 304.059 79.5778 303.654 79.1818C303.129 78.6862 302.548 78.2535 301.922 77.8924C300.59 77.1362 299.139 76.613 297.63 76.3451C296.353 76.199 295.059 76.3567 293.854 76.8056C293.311 76.9898 292.758 77.1648 292.27 77.4687C291.607 77.874 291.036 78.445 290.483 79.0068C289.956 79.5003 289.492 80.0572 289.102 80.6646C288.596 81.4474 288.254 82.3247 288.098 83.2435" stroke="#503C2C" stroke-width="1.63019" stroke-miterlimit="3.2" stroke-linecap="round" stroke-linejoin="round"/>
</g>
<g id="oeil_droite">
<path id="path26" d="M250.963 83.6395C251 83.0593 251.663 82.1843 252.086 81.5028C252.363 81.0422 252.694 80.6186 253.035 80.2041C253.376 79.7805 253.707 79.3384 254.113 78.9792C254.638 78.5187 255.227 78.1134 255.844 77.7819C257.187 77.0732 258.637 76.5879 260.136 76.3451C261.411 76.2092 262.699 76.3538 263.912 76.7688C264.456 76.9345 265.008 77.1003 265.496 77.3858C266.159 77.7635 266.73 78.2884 267.283 78.8134C267.806 79.2664 268.27 79.7831 268.665 80.3515C269.125 81.0883 269.641 82.1014 269.668 82.7553" stroke="#503C2C" stroke-width="1.63019" stroke-miterlimit="3.2" stroke-linecap="round" stroke-linejoin="round"/>
<path id="path13" d="M245.989 78.5555C245.225 77.0635 246.818 74.9912 247.675 73.582C249.206 71.2322 251.473 69.457 254.122 68.5349C256.59 67.6323 259.372 67.9731 261.978 68.2586C263.682 68.4336 265.386 68.8296 266.952 69.5112C268.241 70.0638 269.586 70.6901 270.479 71.7584C271.207 72.6058 272.192 74.4846 271.685 75.4793C271.289 76.2806 269.991 75.8477 269.171 75.4793C268.001 74.9544 262.77 72.7163 261.278 73.1584C258.99 72.8363 256.662 72.9299 254.407 73.4347C254.407 73.4347 250.972 74.853 249.498 75.9583C248.633 76.6214 248.227 77.8463 247.26 78.3437C246.772 78.5923 246.247 79.0344 245.989 78.5555Z" fill="#4C3B2A" stroke="#503C2C" stroke-width="0.110521" stroke-miterlimit="3.2" stroke-linecap="round" stroke-linejoin="round"/>
<path id="path23" fill-rule="evenodd" clip-rule="evenodd" d="M251.856 84.1276C251.893 85.3434 253.007 86.3473 253.928 87.1301C255.23 88.2495 256.813 88.9916 258.506 89.2761C260.67 89.5984 263.111 89.4234 265.017 88.3551C266.675 87.4156 268.444 85.8131 268.665 83.9158C268.849 82.304 267.716 80.6462 266.519 79.5502C264.854 78.0486 262.682 77.2326 260.44 77.2661C258.147 77.3582 255.918 78.6568 254.214 80.1949C253.081 81.2264 251.81 82.5988 251.856 84.1276Z" fill="#F4E3D7" fill-opacity="0.91" stroke="black" stroke-width="0.976271" stroke-miterlimit="3.2" stroke-linecap="round" stroke-linejoin="round"/>
<path id="path24" d="M260.615 87.4709C261.697 87.4709 262.735 87.041 263.5 86.2759C264.265 85.5107 264.695 84.4729 264.695 83.3908C264.695 82.3087 264.265 81.2709 263.5 80.5058C262.735 79.7406 261.697 79.3107 260.615 79.3107C259.533 79.3107 258.495 79.7406 257.73 80.5058C256.965 81.2709 256.535 82.3087 256.535 83.3908C256.535 84.4729 256.965 85.5107 257.73 86.2759C258.495 87.041 259.533 87.4709 260.615 87.4709Z" fill="#6C6753" stroke="black" stroke-width="0.994691" stroke-miterlimit="3.2" stroke-linecap="round" stroke-linejoin="round"/>
<path id="path25" d="M260.615 85.021C261.047 85.021 261.462 84.8492 261.768 84.5435C262.073 84.2378 262.245 83.8232 262.245 83.3908C262.245 82.9585 262.073 82.5438 261.768 82.2381C261.462 81.9324 261.047 81.7606 260.615 81.7606C260.183 81.7606 259.768 81.9324 259.462 82.2381C259.157 82.5438 258.985 82.9585 258.985 83.3908C258.985 83.8232 259.157 84.2378 259.462 84.5435C259.768 84.8492 260.183 85.021 260.615 85.021Z" fill="#241C1C" fill-opacity="0.91" stroke="black" stroke-width="0.976271" stroke-miterlimit="3.2" stroke-linecap="round" stroke-linejoin="round"/>
</g>
<g id="cou">
<circle id="Ellipse 2" cx="279" cy="147" r="0.5" fill="#DD9974"/>
</g>
</g>
<g id="bras_gauche">
<g id="avant_bras_gauche">
<g id="main_gauche">
<path id="path96" d="M481.07 91.0756C480.231 91.0968 479.706 91.276 479.246 91.5739C478.764 91.8992 478.346 92.3531 477.693 93.0005C476.724 94.4234 475.801 95.8862 474.954 97.388L474.182 98.6864L471.757 102.809C470.45 105.026 469.134 107.238 467.827 109.452C466.763 111.248 465.69 113.034 464.569 114.795C464.092 115.574 463.875 115.951 463.731 116.306C463.589 116.642 463.518 116.976 463.371 117.693L463.315 117.989L463.036 117.875C462.46 117.645 462.152 117.528 461.853 117.332C461.464 117.052 461.109 116.741 460.778 116.398L460.715 116.34L460.697 116.237C460.524 115.255 460.485 114.248 460.616 113.257L460.671 112.64C460.792 109.653 460.63 107.67 459.04 105.165C457.392 103.64 455.574 103.182 453.311 103.065C452.775 103.333 452.537 103.465 452.346 103.634C452.154 103.803 452.007 104.017 451.683 104.532C451.1 106.678 451.183 108.4 451.493 110.653C451.975 114.978 452.182 119.327 452.127 123.678C452.179 127.23 452.363 130.856 454.447 133.773L454.456 133.784C455.272 135.109 454.878 136.19 454.579 137.495L454.577 137.515C454.277 138.486 453.932 139.422 453.557 140.353L453.18 141.296L452.643 142.652L452.311 143.479C458.062 146.801 463.793 150.125 469.52 153.481L469.93 152.43C470.419 151.14 470.665 150.443 471.076 149.878C471.477 149.311 472.025 148.863 473.042 148.037L473.099 147.983L473.17 147.981L473.701 147.924C474.048 147.884 474.394 147.855 474.749 147.837L475.277 147.799C477.92 147.609 479.663 145.943 481.493 144.066C483.722 141.471 485.399 138.609 487.151 135.635C490.129 130.522 493.67 125.757 497.711 121.432L498.115 121.006L498.912 120.164L500.032 118.989L500.422 118.602C501.131 117.904 501.714 117.088 502.125 116.186C502.486 115.373 502.687 114.47 502.805 113.326C502.721 113.023 502.605 112.732 502.437 112.457C502.246 112.207 502.021 111.985 501.772 111.794C501.395 111.588 501.001 111.429 500.581 111.32C500.257 111.251 499.903 111.26 499.127 111.268C496.001 113.112 493.589 115.887 491.17 118.641L489.185 120.882L488.31 121.865C487.935 122.294 487.735 122.533 487.478 122.743C487.22 122.955 486.926 123.141 486.36 123.487L486.034 123.106L490.282 118.071L491.727 116.37L493.126 114.724L494.503 113.095C495.479 111.942 496.442 110.808 497.437 109.667L498.325 108.666L499.049 107.845C499.89 106.722 500.309 105.346 500.237 103.948C499.98 103.414 499.855 103.197 499.687 103.006C499.417 102.738 499.103 102.503 498.774 102.313C498.28 102.147 497.771 102.031 497.254 101.972C496.863 101.955 496.444 102.006 495.563 102.124C492.163 104.821 489.459 108.588 486.635 111.939C484.728 114.203 482.685 116.337 480.5 118.32L480.139 117.975L481.019 116.871C482.519 114.973 483.99 113.063 485.462 111.145L486.504 109.778C487.631 108.3 488.727 106.82 489.834 105.339L490.945 103.901C492.837 101.346 494.126 99.4449 494.364 96.3211C494.083 95.6531 493.959 95.3464 493.788 95.0944C493.616 94.8524 493.419 94.6478 492.967 94.2215C492.382 94.0647 491.77 94.047 491.17 94.1691C490.652 94.2888 490.137 94.5498 489.414 94.9473C487.784 96.2544 486.366 97.8127 485.226 99.5656L484.453 100.622C480.995 105.377 477.637 110.214 474.27 115.041L473.836 114.798C474.914 112.228 476.124 109.733 477.412 107.257L477.897 106.328C478.548 105.036 479.228 103.747 479.907 102.468L481.381 99.6224L482.261 97.9342C482.924 96.462 483.325 95.2308 483.507 93.6512C483.285 93.0775 482.977 92.5444 482.581 92.0708C482.223 91.6961 481.777 91.3912 481.07 91.0756Z" fill="#DD9974" stroke="#BB7859" stroke-width="0.5"/>
<path id="path97" d="M460.928 117.407L460.728 118.39C461.31 119.065 461.31 119.065 462.163 119.844L463.082 120.731L465.01 122.526C467.082 124.541 467.909 126.032 468.059 128.941C468.041 130.5 467.911 132.066 467.673 133.608L467.438 135.292L467.236 136.547L468.319 136.256C468.702 134.59 469.069 132.902 469.434 131.223L469.77 129.783L470.07 128.389L470.356 127.115C470.424 125.723 470.129 125.254 469.239 124.199C468.386 123.43 467.415 122.627 467.286 122.531C466.649 121.889 464.941 120.272 465.041 119.78C462.578 117.748 462.578 117.748 460.928 117.407Z" fill="#B67255"/>
<path id="path98" d="M469.252 114.228C471.025 115.632 474.117 118.043 475.976 119.326C478.297 120.948 480.411 122.786 482.543 124.637C483.787 125.594 485.543 126.976 487.018 127.276C483.693 123.548 479.925 120.733 476.266 117.438C475.844 117.014 474.193 116.34 473.762 115.904C472.179 115.088 471.021 114.091 469.262 114.23L469.252 114.228Z" fill="#BB7859"/>
</g>
<path id="path99" d="M446.137 146.885L449.004 141.933L472.534 155.559L469.667 160.512L446.137 146.885Z" fill="white"/>
<path id="path100" d="M413.201 230.58C406.297 226.552 403.948 217.702 407.957 210.786C407.969 210.778 407.971 210.758 407.982 210.749L445.214 146.444L470.305 160.97L433.058 225.315C433.047 225.324 433.044 225.344 433.033 225.352C429.002 232.275 420.124 234.611 413.201 230.58Z" fill="#262626"/>
<g id="coude_gauche">
<path id="circle100" d="M421.501 218.259C421.379 218.798 420.843 219.135 420.304 219.012C419.766 218.89 419.429 218.354 419.551 217.815C419.674 217.277 420.21 216.94 420.748 217.062C421.287 217.185 421.624 217.721 421.501 218.259Z" fill="#262626"/>
</g>
</g>
<g id="haut_bras_gauche">
<path id="path101" d="M334.813 175.749C338.377 168.605 347.457 165.854 355.117 169.636L355.16 169.66L426.4 204.756L413.567 230.763L342.284 195.644L342.243 195.631C334.57 191.82 331.248 182.923 334.813 175.749Z" fill="#262626"/>
<g id="epaule_gauche">
<path id="circle101" d="M347.985 183.212C347.44 183.306 346.924 182.94 346.83 182.395C346.737 181.851 347.103 181.334 347.647 181.241C348.192 181.148 348.709 181.514 348.802 182.058C348.895 182.602 348.529 183.119 347.985 183.212Z" fill="#262626"/>
</g>
</g>
</g>
<g id="bras_droite">
<g id="avant_bras_droite">
<g id="main_droite">
<path id="Vector" d="M76.7207 91.0807C77.5594 91.1019 78.0849 91.2812 78.5441 91.5791C79.0269 91.9043 79.4447 92.3583 80.0975 93.0057C81.0661 94.4286 81.9893 95.8913 82.8366 97.3932L83.6088 98.6916L86.0336 102.814C87.3404 105.031 88.6568 107.243 89.9633 109.457C91.0277 111.254 92.1009 113.039 93.2214 114.8C93.6988 115.579 93.9158 115.956 94.0597 116.311C94.2013 116.647 94.2721 116.981 94.4196 117.699L94.4757 117.994L94.754 117.881C95.3305 117.65 95.6386 117.533 95.9371 117.337C96.3262 117.057 96.6813 116.746 97.0124 116.403L97.0759 116.345L97.0936 116.243C97.2664 115.261 97.3053 114.253 97.1748 113.262L97.12 112.645C96.9989 109.658 97.1609 107.675 98.7505 105.17C100.399 103.645 102.217 103.187 104.479 103.07C105.015 103.338 105.253 103.47 105.445 103.64C105.636 103.808 105.783 104.022 106.108 104.537C106.691 106.683 106.608 108.405 106.297 110.658C105.815 114.983 105.608 119.332 105.663 123.683C105.611 127.235 105.427 130.861 103.344 133.778L103.335 133.789C102.519 135.114 102.912 136.195 103.212 137.5L103.214 137.52C103.513 138.491 103.859 139.427 104.234 140.358L104.61 141.301L105.148 142.657L105.48 143.484C99.7284 146.806 93.9974 150.13 88.2703 153.486L87.8606 152.435C87.3715 151.146 87.1256 150.448 86.7144 149.883C86.3131 149.316 85.7651 148.868 84.7482 148.042L84.6911 147.988L84.6204 147.986L84.0897 147.929C83.7424 147.889 83.3963 147.86 83.0415 147.842L82.5131 147.804C79.8709 147.614 78.1273 145.948 76.2976 144.071C74.0684 141.476 72.3911 138.615 70.6396 135.64C67.6613 130.527 64.1209 125.762 60.0799 121.437L59.6756 121.011L58.8783 120.169L57.7583 118.994L57.3688 118.607C56.6595 117.91 56.0768 117.093 55.6651 116.191C55.3045 115.378 55.104 114.475 54.9852 113.331C55.0694 113.029 55.1851 112.738 55.3531 112.462C55.5444 112.212 55.7692 111.99 56.018 111.799C56.3959 111.593 56.7897 111.435 57.2096 111.325C57.5337 111.257 57.8872 111.265 58.6639 111.273C61.789 113.117 64.2013 115.892 66.621 118.646L68.6057 120.887L69.4807 121.87C69.8552 122.299 70.0554 122.538 70.3127 122.748C70.5701 122.96 70.8646 123.146 71.4305 123.492L71.7569 123.111L67.5089 118.076L66.0632 116.375L64.6644 114.729L63.2879 113.1C62.3118 111.947 61.348 110.813 60.3531 109.672L59.4659 108.671L58.7417 107.85C57.9002 106.727 57.4811 105.351 57.5531 103.953C57.8106 103.419 57.9353 103.202 58.1036 103.012C58.3732 102.743 58.6872 102.509 59.0167 102.319C59.5102 102.152 60.02 102.036 60.5365 101.977C60.9274 101.96 61.3466 102.011 62.2272 102.129C65.6274 104.827 68.3313 108.593 71.1559 111.944C73.0629 114.208 75.1051 116.342 77.2902 118.325L77.6512 117.98L76.7716 116.876C75.2718 114.978 73.8008 113.068 72.3287 111.15L71.2864 109.783C70.1599 108.305 69.0634 106.825 67.9568 105.345L66.8452 103.906C64.9534 101.352 63.6647 99.4501 63.4262 96.3262C63.7077 95.6583 63.8317 95.3515 64.0025 95.0996C64.1746 94.8576 64.3714 94.653 64.8233 94.2267C65.4086 94.0698 66.021 94.0522 66.6201 94.1743C67.1383 94.294 67.6535 94.555 68.3767 94.9525C70.0062 96.2596 71.4245 97.8178 72.5642 99.5708L73.3372 100.627C76.7958 105.382 80.1536 110.219 83.5203 115.047L83.9542 114.803C82.8763 112.233 81.6667 109.738 80.3787 107.263L79.8931 106.333C79.2426 105.041 78.5622 103.752 77.883 102.474L76.4091 99.6276L75.5291 97.9394C74.8667 96.4672 74.4653 95.2359 74.2835 93.6563C74.506 93.0827 74.8139 92.5496 75.2097 92.076C75.5671 91.7013 76.0136 91.3964 76.7207 91.0807Z" fill="#DD9974" stroke="#BB7859" stroke-width="0.5"/>
<path id="path48" d="M96.8629 117.412L97.0629 118.395C96.4801 119.07 96.4801 119.07 95.6277 119.849L94.708 120.736L92.7805 122.532C90.7083 124.546 89.882 126.037 89.7317 128.946C89.7499 130.505 89.8796 132.071 90.1174 133.614L90.3522 135.298L90.555 136.552L89.4719 136.261C89.0882 134.595 88.722 132.907 88.3569 131.228L88.0208 129.788L87.7206 128.394L87.4347 127.12C87.3664 125.728 87.662 125.259 88.5513 124.204C89.4048 123.435 90.3751 122.632 90.5044 122.536C91.1417 121.895 92.8491 120.277 92.7491 119.785C95.2121 117.753 95.212 117.753 96.8629 117.412Z" fill="#B67255"/>
<path id="path49" d="M88.5389 114.233C86.7653 115.638 83.6734 118.048 81.8146 119.332C79.4932 120.953 77.3794 122.792 75.2471 124.642C74.0034 125.599 72.2472 126.981 70.7726 127.281C74.0973 123.553 77.8654 120.738 81.5247 117.443C81.9466 117.019 83.5974 116.345 84.0281 115.91C85.6111 115.093 86.7694 114.096 88.529 114.235L88.5389 114.233Z" fill="#BB7859"/>
</g>
<path id="path34" d="M111.654 146.89L108.787 141.938L85.2567 155.565L88.1237 160.517L111.654 146.89Z" fill="white"/>
<path id="os_avant_bras_droite" d="M144.59 230.585C151.493 226.557 153.843 217.707 149.833 210.791C149.822 210.783 149.819 210.763 149.808 210.754L112.576 146.449L87.4858 160.976L124.733 225.32C124.744 225.329 124.746 225.349 124.758 225.357C128.788 232.28 137.667 234.616 144.59 230.585Z" fill="#262626"/>
<g id="coude_droite">
<path id="rot_coude_droite" d="M136.289 218.264C136.412 218.803 136.948 219.14 137.486 219.017C138.025 218.895 138.362 218.359 138.239 217.82C138.117 217.282 137.581 216.945 137.042 217.067C136.504 217.19 136.167 217.726 136.289 218.264Z" fill="#262626"/>
</g>
</g>
<g id="haut_bras_droite">
<path id="path94" d="M222.978 175.754C219.414 168.61 210.334 165.859 202.673 169.641L202.63 169.665L131.391 204.761L144.224 230.768L215.506 195.649L215.548 195.636C223.22 191.825 226.543 182.928 222.978 175.754Z" fill="#262626"/>
<g id="epaule_droite">
<path id="circle94" d="M209.806 183.217C210.35 183.31 210.867 182.945 210.96 182.4C211.053 181.856 210.687 181.339 210.143 181.246C209.599 181.153 209.082 181.519 208.989 182.063C208.896 182.607 209.261 183.124 209.806 183.217Z" fill="#262626"/>
</g>
</g>
</g>
<g id="jambe_droite">
<g id="cuisse_droite">
<path id="path36" d="M231.84 323.08V435.93H267.84V323.08H231.84Z" fill="#262626"/>
<g id="hanche_droite">
<path id="path37" d="M238.68 342.8C239.292 344.277 240.191 345.619 241.324 346.747C242.457 347.876 243.802 348.769 245.281 349.375C246.761 349.981 248.346 350.289 249.945 350.28C251.544 350.271 253.125 349.946 254.598 349.324C256.071 348.701 257.406 347.793 258.527 346.652C259.647 345.511 260.531 344.16 261.127 342.676C261.723 341.193 262.019 339.605 261.999 338.007C261.979 336.408 261.643 334.828 261.01 333.36C259.741 330.423 257.362 328.107 254.392 326.917C251.422 325.726 248.102 325.758 245.156 327.005C242.209 328.252 239.875 330.613 238.662 333.573C237.449 336.534 237.456 339.854 238.68 342.81V342.8Z" fill="#262626"/>
</g>
</g>
<g id="tibia_droite">
<path id="os_tibia_droite" d="M250 418C259.941 418 268 426.059 268 436C268 436.815 267.945 437.616 267.84 438.402V534.18H231.84V435.73H232.003C232.147 425.914 240.149 418 250 418Z" fill="#262626"/>
<path id="chaussette_droite" d="M265.09 534.38H235.39V545.38H265.09V534.38Z" fill="white"/>
<g id="genou_droite">
<circle id="Ellipse 1" cx="250" cy="436" r="0.5" fill="#262626"/>
</g>
</g>
</g>
<g id="jambe_gauche">
<g id="cuisse_gauche">
<path id="path39" d="M289.5 435.93V323.08H307.5H325.5V435.93H289.5Z" fill="#262626"/>
<g id="hanche_gauche">
<path id="path40" d="M296.67 342.81C297.277 344.295 298.173 345.645 299.305 346.781C300.438 347.918 301.785 348.818 303.268 349.43C304.752 350.041 306.341 350.353 307.946 350.345C309.55 350.338 311.137 350.012 312.615 349.386C314.092 348.761 315.431 347.848 316.553 346.701C317.675 345.554 318.558 344.196 319.151 342.705C319.744 341.214 320.035 339.621 320.008 338.016C319.98 336.412 319.634 334.83 318.99 333.36C317.71 330.44 315.332 328.142 312.369 326.964C309.407 325.785 306.1 325.821 303.164 327.064C300.228 328.307 297.9 330.657 296.685 333.604C295.469 336.551 295.464 339.859 296.67 342.81Z" fill="#262626"/>
</g>
</g>
<g id="tibia_gauche">
<path id="os_tibia_gauche" d="M307.58 418C317.521 418 325.58 426.059 325.58 436C325.58 436.815 325.525 437.616 325.42 438.402V534.18H289.42V435.73H289.583C289.727 425.914 297.729 418 307.58 418Z" fill="#262626"/>
<path id="chaussette_gauche" d="M322.67 534.38H292.97V545.38H322.67V534.38Z" fill="white"/>
<g id="genou_gauche">
<circle id="Ellipse 1_2" cx="308" cy="436" r="0.5" fill="#262626"/>
</g>
</g>
</g>
<g id="pied_droite">
<path id="path1-5" d="M269.934 561.086L269.859 569.325L244.158 569.276V564.714C236.259 565.734 228.133 568.433 220.234 569.325C215.056 569.949 209.122 570.27 197.103 568.146C193.475 567.571 189.998 566.781 186.672 565.795C180.323 563.848 174.124 561.902 171.819 559.956C172.083 558.856 172.159 557.37 172.688 556.785C175.598 558.383 179.075 559.861 183.346 561.188C189.658 563.399 196.31 564.975 203.453 565.685C210.483 566.804 216.833 566.611 222.766 565.685C237.544 562.458 242.495 561.607 244.65 561.498C253.153 560.893 261.544 561.18 269.934 561.086Z" fill="black"/>
<path id="path2-3" d="M269.557 561.093C269.821 558.909 270.124 556.044 270.086 554.026C270.086 551.867 269.594 549.505 269.027 546.761C268.461 544.017 267.818 540.986 266.533 537.638L262.64 538.957C258.861 540.355 255.081 541.81 251.339 542.158C248.958 542.411 246.502 542.086 244.045 541.187C242.382 540.589 240.719 539.713 239.132 538.556C238.565 535.789 237.128 533.442 234.861 531.515L231.308 533.688C230.854 533.541 229.91 533.624 228.511 533.938L214.414 543.624L213.091 545.008C210.861 546.463 208.555 547.695 206.25 548.696C202.546 550.307 198.804 551.183 195.063 551.327C191.321 551.346 187.882 550.204 183.951 550.186C181.041 550.322 178.735 550.877 177.072 551.856C175.787 552.635 174.88 553.485 174.351 554.407C173.86 555.239 173.406 556.116 173.331 557.125C175.069 558.111 176.808 558.807 178.508 559.502C180.776 560.375 183.271 561.203 185.689 561.974C186.823 562.359 189.847 563.342 194.42 564.291C195.365 564.597 201.866 565.621 205.418 565.965C208.215 566.328 211.05 566.483 213.809 566.449C217.777 566.585 221.633 565.852 224.581 565.394C229.343 564.344 234.067 563.391 238.905 562.325C244.272 561.452 249.79 561.029 255.421 561.237C260.146 561.203 264.832 561.105 269.557 561.093Z" fill="#1F1A1A" stroke="black" stroke-width="0.399984"/>
<path id="path7-5" d="M244.083 561.539C243.402 560.046 241.777 557.9 239.661 556.365C238.413 555.469 236.939 554.8 235.239 554.358C233.16 553.863 231.081 553.784 229.191 553.81C228.587 553.753 226.886 553.931 224.089 554.347M224.089 554.347L216.568 555.175C216.492 554.203 216.19 553.3 215.736 552.465L214.187 549.116C213.658 548.096 213.28 546.935 213.696 545.779C213.922 545.132 216.417 542.918 217.135 542.434L227.188 535.582C227.415 535.43 228.473 534.841 229.343 534.705C230.439 534.512 231.459 534.648 232.442 535.105C234.369 535.88 235.654 537.332 237.166 538.567C238.943 539.985 241.135 541.247 243.818 542.354C246.35 543.537 249.828 543.734 254.25 542.948C257.5 542.184 261.204 540.914 265.361 539.146M224.089 554.347L223.295 552.276C222.653 550.79 222.313 549.309 222.237 547.827C222.464 546.395 223.031 545.212 223.976 544.286C225.45 542.974 227.037 541.825 228.738 540.835L233.009 538.458M235.73 537.309L233.009 538.458M233.009 538.458L237.96 541.837C239.661 542.925 241.739 543.859 244.196 544.637C246.124 545.253 248.24 545.541 250.546 545.507C252.435 545.427 254.212 545.174 255.95 544.747L261.96 542.876L266.231 541.077M266.873 538.477L265.361 539.146M265.361 539.146C265.664 539.527 265.928 540.174 266.231 541.077M267.591 540.446L266.231 541.077M266.231 541.077C266.835 543.651 266.646 545.348 265.739 546.168C264.038 547.695 264.001 547.211 259.352 549.702C256.933 550.994 255.686 553.667 255.194 555.745C254.892 557.374 255.005 559.57 255.421 561.237" stroke="#FDFBFE" stroke-opacity="0.95724" stroke-width="0.099998"/>
<path id="path22-2" d="M216.379 545.786L214.414 543.624M221.028 543.277L219.214 540.321M224.543 540.378L222.691 537.936M227.075 538.526L225.299 536.149M230.363 537.048L228.171 534.168" stroke="#FDFBFE" stroke-opacity="0.95724" stroke-width="0.49999"/>
</g>
<g id="pied_gauche">
<path id="path75" d="M288.175 561.086L288.251 569.325L313.952 569.276V564.714C321.851 565.734 329.977 568.433 337.876 569.325C343.054 569.949 348.988 570.27 361.006 568.146C364.635 567.571 368.112 566.781 371.438 565.795C377.787 563.848 383.986 561.902 386.291 559.956C386.027 558.856 385.951 557.37 385.422 556.785C382.512 558.383 379.035 559.861 374.764 561.188C368.452 563.399 361.8 564.975 354.657 565.685C347.627 566.804 341.277 566.611 335.344 565.685C320.566 562.458 315.615 561.607 313.46 561.498C304.956 560.893 296.566 561.18 288.175 561.086Z" fill="black"/>
<path id="path76" d="M288.553 561.093C288.289 558.909 287.986 556.044 288.024 554.026C288.024 551.867 288.516 549.505 289.083 546.761C289.65 544.017 290.292 540.986 291.577 537.638L295.47 538.957C299.249 540.355 303.029 541.81 306.771 542.158C309.152 542.411 311.608 542.086 314.065 541.187C315.728 540.589 317.391 539.713 318.978 538.556C319.545 535.789 320.982 533.442 323.249 531.515L326.802 533.688C327.256 533.541 328.2 533.624 329.599 533.938L343.696 543.624L345.019 545.008C347.249 546.463 349.555 547.695 351.86 548.696C355.564 550.307 359.306 551.183 363.047 551.327C366.789 551.346 370.228 550.204 374.159 550.186C377.069 550.322 379.375 550.877 381.038 551.856C382.323 552.635 383.23 553.485 383.759 554.407C384.25 555.239 384.704 556.116 384.779 557.125C383.041 558.111 381.302 558.807 379.602 559.502C377.334 560.375 374.839 561.203 372.421 561.974C371.287 562.359 368.263 563.342 363.69 564.291C362.745 564.597 356.244 565.621 352.692 565.965C349.895 566.328 347.06 566.483 344.301 566.449C340.333 566.585 336.477 565.852 333.529 565.394C328.767 564.344 324.043 563.391 319.205 562.325C313.838 561.452 308.32 561.029 302.689 561.237C297.964 561.203 293.278 561.105 288.553 561.093Z" fill="#1F1A1A" stroke="black" stroke-width="0.399984"/>
<path id="path77" d="M314.027 561.539C314.708 560.046 316.333 557.9 318.449 556.365C319.696 555.469 321.17 554.8 322.871 554.358C324.95 553.863 327.029 553.784 328.918 553.81C329.523 553.753 331.224 553.931 334.021 554.347M334.021 554.347L341.542 555.175C341.618 554.203 341.92 553.3 342.373 552.465L343.923 549.116C344.452 548.096 344.83 546.935 344.414 545.779C344.188 545.132 341.693 542.918 340.975 542.434L330.922 535.582C330.695 535.43 329.637 534.841 328.767 534.705C327.671 534.512 326.651 534.648 325.668 535.105C323.741 535.88 322.456 537.332 320.944 538.567C319.167 539.985 316.975 541.247 314.292 542.354C311.76 543.537 308.282 543.734 303.86 542.948C300.61 542.184 296.906 540.914 292.749 539.146M334.021 554.347L334.814 552.276C335.457 550.79 335.797 549.309 335.873 547.827C335.646 546.395 335.079 545.212 334.134 544.286C332.66 542.974 331.073 541.825 329.372 540.835L325.101 538.458M322.38 537.309L325.101 538.458M325.101 538.458L320.15 541.837C318.449 542.925 316.371 543.859 313.914 544.637C311.986 545.253 309.87 545.541 307.564 545.507C305.675 545.427 303.898 545.174 302.16 544.747L296.15 542.876L291.879 541.077M291.237 538.477L292.749 539.146M292.749 539.146C292.446 539.527 292.182 540.174 291.879 541.077M290.519 540.446L291.879 541.077M291.879 541.077C291.275 543.651 291.464 545.348 292.371 546.168C294.071 547.695 294.109 547.211 298.758 549.702C301.177 550.994 302.424 553.667 302.915 555.745C303.218 557.374 303.104 559.57 302.689 561.237" stroke="#FDFBFE" stroke-opacity="0.95724" stroke-width="0.099998"/>
<path id="path78" d="M341.731 545.786L343.696 543.624M337.082 543.277L338.896 540.321M333.567 540.378L335.419 537.936M331.035 538.526L332.811 536.149M327.747 537.048L329.939 534.168" stroke="#FDFBFE" stroke-opacity="0.95724" stroke-width="0.49999"/>
</g>
<g id="torse">
<path id="path55" d="M302.4 329.21L307.83 265.72H249.84L254.14 328.96C254.14 328.96 272.26 338.11 278.84 338.09C285.14 338.07 302.41 329.21 302.41 329.21H302.4Z" fill="#332E2E" stroke="#00000F" stroke-width="0.405"/>
<path id="path56" d="M351.63 167.82L339.86 163.64L321.87 155.97L301.9 146.67L276.33 272.12L278.87 305.7C278.87 305.7 280.72 321.35 284.38 336.95C287 348.09 292.08 356.48 299.22 358.45C305.51 360.17 314.94 358.3 322.11 356.78C330.51 355 338.07 351.9 338.07 351.9L335.11 298.18L338.07 237.47L351.63 167.82Z" fill="#262626" stroke="#00000F" stroke-width="0.405"/>
<path id="path57" d="M205.93 167.82L217.7 163.64L235.69 155.97L255.66 146.67L281.23 272.14L278.84 285.58C280.11 294.58 279.08 299.18 278.7 305.72C278.7 305.72 276.85 321.38 273.18 336.98C270.56 348.12 265.48 356.51 258.34 358.48C252.05 360.2 242.62 358.33 235.45 356.81C230.01 355.61 224.67 353.98 219.49 351.93L222.45 298.2L219.49 237.48L205.93 167.82Z" fill="#262626" stroke="#00000F" stroke-width="0.405"/>
<path id="path58" d="M303.28 215.63H254.4V163.96H303.28V215.63Z" fill="white" stroke="#00000F" stroke-width="0.405"/>
<path id="path59" d="M302.83 144.53C302.83 144.53 298.46 150.86 291.91 156.21C287.854 159.438 283.474 162.236 278.84 164.56C277.61 163.96 271.33 160.76 265.76 156.21C259.22 150.86 254.85 144.53 254.85 144.53C254.85 144.53 253.25 155.95 254.85 167.89C256.12 177.35 260.28 191.26 260.28 191.26L278.84 164.99L297.39 191.26C297.39 191.26 301.56 177.36 302.83 167.89C304.43 155.95 302.83 144.53 302.83 144.53Z" fill="#A7A9AC" stroke="#00000F" stroke-width="0.405"/>
<path id="path60" d="M285.14 163.96H272.54L268.26 171.91L274.86 184.72H282.81L289.41 171.92L285.14 163.96Z" fill="#090A47" stroke="#00000F" stroke-width="0.405"/>
<path id="path61" d="M287.15 176.3L289.41 171.91L285.14 163.96H279.15L278.84 164.12L278.52 163.96H272.53L268.27 171.91L270.52 176.31L278.84 164.53L287.15 176.3Z" fill="#03466B" stroke="#00000F" stroke-width="0.405"/>
<path id="path62" d="M282.81 184.72H274.86L268.26 232.85H289.41L282.81 184.72Z" fill="#090A47" stroke="#00000F" stroke-width="0.405"/>
<path id="path63" d="M302.4 228.97L307.83 165.48L278.83 224.61L249.84 165.48L254.14 228.72L278.84 285.58L302.4 228.97Z" fill="#332E2E" stroke="#00000F" stroke-width="0.405"/>
<path id="path64" d="M278.98 285.58L303.56 156.95L324.13 177.13L316.37 181.01L326.85 192.27L278.98 285.58Z" fill="#414042" stroke="#00000F" stroke-width="0.405"/>
<path id="path65" d="M278.84 285.58L254.1 156.95L233.53 177.13L241.3 181.01L230.82 192.27L278.84 285.58Z" fill="#414042" stroke="#00000F" stroke-width="0.405"/>
<path id="path66" d="M281.75 238.47C281.773 238.867 281.715 239.265 281.579 239.639C281.443 240.013 281.232 240.355 280.959 240.644C280.686 240.934 280.357 241.164 279.992 241.322C279.626 241.48 279.233 241.561 278.835 241.561C278.437 241.561 278.044 241.48 277.678 241.322C277.313 241.164 276.984 240.934 276.711 240.644C276.438 240.355 276.227 240.013 276.091 239.639C275.955 239.265 275.897 238.867 275.92 238.47C275.964 237.726 276.29 237.028 276.832 236.517C277.373 236.005 278.09 235.721 278.835 235.721C279.58 235.721 280.297 236.005 280.838 236.517C281.38 237.028 281.706 237.726 281.75 238.47Z" fill="#231F20" stroke="#00000F" stroke-width="0.405"/>
<path id="path67" d="M281.75 259.41C281.75 259.793 281.674 260.173 281.528 260.527C281.381 260.882 281.166 261.204 280.895 261.475C280.624 261.746 280.302 261.961 279.947 262.108C279.593 262.254 279.213 262.33 278.83 262.33C278.447 262.33 278.067 262.254 277.713 262.108C277.358 261.961 277.036 261.746 276.765 261.475C276.494 261.204 276.279 260.882 276.132 260.527C275.986 260.173 275.91 259.793 275.91 259.41C275.91 258.636 276.218 257.893 276.765 257.345C277.313 256.798 278.056 256.49 278.83 256.49C279.604 256.49 280.347 256.798 280.895 257.345C281.442 257.893 281.75 258.636 281.75 259.41Z" fill="#231F20" stroke="#00000F" stroke-width="0.405"/>
<path id="path68" d="M302.83 144.53C302.83 144.53 298.46 150.63 291.91 155.79C287.837 158.909 283.458 161.606 278.84 163.84C274.218 161.608 269.835 158.91 265.76 155.79C259.22 150.63 254.85 144.53 254.85 144.53C254.85 144.53 253.25 155.53 254.85 167.04C256.12 176.16 260.28 189.55 260.28 189.55L278.84 164.24L297.39 189.55C297.39 189.55 301.56 176.16 302.83 167.05C304.43 155.53 302.83 144.53 302.83 144.53Z" fill="white" stroke="#00000F" stroke-width="0.405"/>
<path id="path69" d="M310.32 228.88H333.18V235.03H310.32V228.88Z" fill="#414042" stroke="#00000F" stroke-width="0.405"/>
<path id="path70" d="M281.9 297.1C281.9 297.483 281.824 297.863 281.678 298.217C281.531 298.572 281.316 298.894 281.045 299.165C280.774 299.436 280.452 299.651 280.097 299.798C279.743 299.944 279.363 300.02 278.98 300.02C278.597 300.02 278.217 299.944 277.863 299.798C277.508 299.651 277.186 299.436 276.915 299.165C276.644 298.894 276.429 298.572 276.282 298.217C276.136 297.863 276.06 297.483 276.06 297.1C276.104 296.356 276.43 295.658 276.972 295.147C277.513 294.635 278.23 294.351 278.975 294.351C279.72 294.351 280.437 294.635 280.978 295.147C281.52 295.658 281.846 296.356 281.89 297.1H281.9Z" fill="#231F20" stroke="#00000F" stroke-width="0.405"/>
</g>
</g>
<defs>
<clipPath id="clip0_1_2">
<rect width="553.67" height="570.53" fill="white"/>
</clipPath>
</defs>
</svg>
