<?xml version="1.0" encoding="UTF-8" standalone="no"?>
<!-- Created with Inkscape (http://www.inkscape.org/) -->

<svg
   xmlns:dc="http://purl.org/dc/elements/1.1/"
   xmlns:cc="http://creativecommons.org/ns#"
   xmlns:rdf="http://www.w3.org/1999/02/22-rdf-syntax-ns#"
   xmlns:svg="http://www.w3.org/2000/svg"
   xmlns="http://www.w3.org/2000/svg"
   xmlns:sodipodi="http://sodipodi.sourceforge.net/DTD/sodipodi-0.dtd"
   xmlns:inkscape="http://www.inkscape.org/namespaces/inkscape"
   version="1.1"
   id="svg10"
   width="426.66666"
   height="320"
   viewBox="0 0 426.66666 320"
   sodipodi:docname="Faucille.svg"
   inkscape:version="0.92.4 (5da689c313, 2019-01-14)">
  <metadata
     id="metadata16">
    <rdf:RDF>
      <cc:Work
         rdf:about="">
        <dc:format>image/svg+xml</dc:format>
        <dc:type
           rdf:resource="http://purl.org/dc/dcmitype/StillImage" />
        <dc:title></dc:title>
      </cc:Work>
    </rdf:RDF>
  </metadata>
  <defs
     id="defs14" />
  <sodipodi:namedview
     pagecolor="#ffffff"
     bordercolor="#666666"
     borderopacity="1"
     objecttolerance="10"
     gridtolerance="10"
     guidetolerance="10"
     inkscape:pageopacity="0"
     inkscape:pageshadow="2"
     inkscape:window-width="1920"
     inkscape:window-height="1027"
     id="namedview12"
     showgrid="false"
     showguides="false"
     inkscape:guide-bbox="true"
     inkscape:zoom="3"
     inkscape:cx="213.33333"
     inkscape:cy="206.16889"
     inkscape:window-x="-8"
     inkscape:window-y="-8"
     inkscape:window-maximized="1"
     inkscape:current-layer="layer2">
    <sodipodi:guide
       position="184.18605,112.74419"
       orientation="0,1"
       id="guide4548"
       inkscape:locked="false" />
  </sodipodi:namedview>
  <g
     inkscape:groupmode="layer"
     id="layer2"
     inkscape:label="Faucille"
     style="display:inline">
    <path
       style="fill:#552200;stroke:#000000;stroke-width:3;stroke-linecap:butt;stroke-linejoin:miter;stroke-miterlimit:4;stroke-dasharray:none;stroke-opacity:1"
       d="m 191.25581,191.62791 c -3.88532,6.62844 -3.40978,10.93504 -1.48837,15.6279 h 20.46512 c 2.33721,-7.5659 0.85783,-9.92247 -2.23256,-15.6279 -7.18848,-0.11871 -10.54794,-0.87352 -16.74419,0 z"
       id="path4550"
       inkscape:connector-curvature="0"
       sodipodi:nodetypes="ccccc" />
    <path
       style="fill:#552200;stroke:#000000;stroke-width:3;stroke-linecap:butt;stroke-linejoin:miter;stroke-miterlimit:4;stroke-dasharray:none;stroke-opacity:1"
       d="m 192.37209,311.81395 c 8.20294,2.56314 15.90693,2.27153 23.06977,-1.11628 2.42276,-7.37568 4.11364,-15.48326 2.60465,-26.79069 -2.2599,-10.86004 -9.27243,-27.47065 -4.83721,-40.93024 3.7339,-10.21237 6.09055,-29.6604 -2.97674,-35.72093 -8.06202,0.49612 -12.4031,-0.49612 -20.46512,0 -6.58349,5.29617 -7.99765,15.82318 -4.46511,28.27907 4.79664,10.78457 7.33858,22.21334 5.2093,34.97675 -2.88521,13.12684 -5.85572,26.23809 1.86046,41.30232 z"
       id="path3741"
       inkscape:connector-curvature="0"
       sodipodi:nodetypes="ccccccccc" />
    <path
       style="fill:#4d4d4d;stroke:#000000;stroke-width:3;stroke-linecap:round;stroke-linejoin:round;stroke-miterlimit:4;stroke-dasharray:none;stroke-opacity:1"
       d="M 299.78294,60.116279 C 282.02558,42.980059 238.82713,7.1702477 197.03877,6.1085271 154.43458,4.8876744 104.32327,21.052478 96.744186,92.062016 95.269077,139.2818 116.19476,162.46506 145.41086,174.53488 c 18.01494,7.50196 25.99958,7.6297 37.69767,9.7907 5.19986,0.7794 6.59691,1.56584 8.14728,7.30233 4.09315,-3.41781 5.60882,-8.11667 5.37247,-17.13032 C 37.291261,148.55424 123.61796,-57.04148 299.78294,60.116279 Z"
       id="path4554"
       inkscape:connector-curvature="0"
       sodipodi:nodetypes="cccccccc" />
    <path
       style="fill:#666666;stroke:#000000;stroke-width:3;stroke-linecap:butt;stroke-linejoin:round;stroke-miterlimit:4;stroke-dasharray:none;stroke-opacity:1"
       d="m 191.25581,191.62791 c 2.10853,-5.08527 1.6124,-7.5659 -1.48837,-11.90698 -21.98302,-4.00441 -39.40988,-8.65405 -61.02325,-24.93023 C 113.58983,140.77773 106.05269,128.17235 105.48793,98.181603 104.86977,62.081544 123.11614,34.21335 156.27907,18.976744 209.10933,-1.0953258 261.43275,24.899482 305.11628,65.116279 281.08455,49.939063 255.44425,37.174714 225.48837,30.883721 207.87597,27.168694 190.26356,28.536036 172.65116,32.744186 122.51511,46.925392 114.26404,114.06533 143.25581,144 c 12.51544,12.45516 36.24472,23.74725 64,26.7907 2.43665,6.9463 3.22104,13.89217 0.74419,20.83721 z"
       id="path4552"
       inkscape:connector-curvature="0"
       sodipodi:nodetypes="cccccccccccc" />
  </g>
</svg>
