<svg xmlns="http://www.w3.org/2000/svg" viewBox="0 0 426.67 320">
  <g stroke="#000" stroke-width="3">
    <path fill="#520" d="M191.26 191.63c-3.89 6.63-3.41 10.93-1.5 15.63h20.47c2.34-7.57.86-9.93-2.23-15.63-7.19-.12-10.55-.88-16.74 0z"/>
    <path fill="#520" d="M192.37 311.81c8.2 2.57 15.9 2.28 23.07-1.11 2.42-7.38 4.12-15.49 2.6-26.8-2.25-10.85-9.27-27.46-4.83-40.92 3.73-10.22 6.09-29.66-2.98-35.72-8.06.5-12.4-.5-20.46 0-6.59 5.3-8 15.82-4.47 28.27 4.8 10.79 7.34 22.22 5.21 34.98-2.88 13.13-5.85 26.24 1.86 41.3z"/>
    <path fill="#4d4d4d" stroke-linecap="round" stroke-linejoin="round" d="M299.78 60.12C282.03 42.98 238.83 7.17 197.04 6.1c-42.6-1.22-92.72 14.94-100.3 85.95-1.47 47.22 19.45 70.4 48.67 82.47 18.02 7.5 26 7.63 37.7 9.8 5.2.77 6.6 1.56 8.15 7.3 4.09-3.42 5.6-8.12 5.37-17.13C37.29 148.55 123.62-57.04 299.78 60.12Z"/>
    <path fill="#666" stroke-linejoin="round" d="M191.26 191.63c2.1-5.09 1.6-7.57-1.5-11.9-21.98-4.01-39.4-8.66-61.02-24.94-15.15-14.01-22.69-26.62-23.25-56.6-.62-36.1 17.63-63.98 50.79-79.21C209.1-1.1 261.43 24.9 305.12 65.12c-24.04-15.18-49.68-27.95-79.63-34.24-17.61-3.71-35.23-2.34-52.84 1.86-50.13 14.19-58.39 81.33-29.4 111.26 12.52 12.46 36.25 23.75 64 26.8 2.44 6.94 3.23 13.88.75 20.83z"/>
  </g>
</svg>
