<?xml version="1.0" encoding="UTF-8" standalone="no"?>
<!-- Created with Inkscape (http://www.inkscape.org/) -->

<svg
   width="55.946mm"
   height="82.145mm"
   viewBox="0 0 55.946 82.145"
   version="1.1"
   id="svg1"
   xmlns="http://www.w3.org/2000/svg"
   xmlns:svg="http://www.w3.org/2000/svg">
  <defs
     id="defs1" />
  <g
     id="layer1"
     transform="translate(-77.257,-107.42)">
    <g
       stroke="black"
       stroke-width="3"
       id="g4"
       transform="matrix(0.26458,0,0,0.26458,52.078,106.22)">
      <path
         fill="#520"
         d="M 191.26,191.63 C 187.37,198.26 187.85,202.56 189.76,207.26 H 210.23 C 212.57,199.69 211.09,197.33 208,191.63 200.81,191.51 197.45,190.75 191.26,191.63 Z"
         id="path1" />
      <path
         fill="#520"
         d="M 192.37,311.81 C 200.57,314.38 208.27,314.09 215.44,310.7 217.86,303.32 219.56,295.21 218.04,283.9 215.79,273.05 208.77,256.44 213.21,242.98 216.94,232.76 219.3,213.32 210.23,207.26 202.17,207.76 197.83,206.76 189.77,207.26 183.18,212.56 181.77,223.08 185.3,235.53 190.1,246.32 192.64,257.75 190.51,270.51 187.63,283.64 184.66,296.75 192.37,311.81 Z"
         id="path2" />
      <path
         fill="#4d4d4d"
         stroke-linecap="round"
         stroke-linejoin="round"
         d="M 299.78,60.12 C 282.03,42.98 238.83,7.17 197.04,6.1 154.44,4.88 104.32,21.04 96.74,92.05 95.27,139.27 116.19,162.45 145.41,174.52 163.43,182.02 171.41,182.15 183.11,184.32 188.31,185.09 189.71,185.88 191.26,191.62 195.35,188.2 196.86,183.5 196.63,174.49 37.29,148.55 123.62,-57.04 299.78,60.12 Z"
         id="path3" />
      <path
         fill="#666"
         stroke-linejoin="round"
         d="M 191.26,191.63 C 193.36,186.54 192.86,184.06 189.76,179.73 167.78,175.72 150.36,171.07 128.74,154.79 113.59,140.78 106.05,128.17 105.49,98.19 104.87,62.09 123.12,34.21 156.28,18.98 209.1,-1.1 261.43,24.9 305.12,65.12 281.08,49.94 255.44,37.17 225.49,30.88 207.88,27.17 190.26,28.54 172.65,32.74 122.52,46.93 114.26,114.07 143.25,144 155.77,156.46 179.5,167.75 207.25,170.8 209.69,177.74 210.48,184.68 208,191.63 Z"
         id="path4" />
    </g>
  </g>
</svg>
