<svg xmlns="http://www.w3.org/2000/svg" xml:space="preserve" fill-rule="evenodd" clip-rule="evenodd" image-rendering="optimizeQuality" shape-rendering="geometricPrecision" text-rendering="geometricPrecision" viewBox="0 0 242.7 291.7">
  <path fill="#a05a2c" stroke="#000" stroke-width=".77" d="m161.84 123.05-145.48-84c-.38-.16-.77-.32-1.15-.53-4.73-2.74-6.59-8.43-4.13-12.69s8.31-5.5 13.05-2.76q.45.26.87.55l145.69 84.11z"/>
  <path stroke="#000" stroke-width=".86" d="m174.93 97.1-.16-.1-23.38 40.5-24.5-14.15 23.53-40.73-.03-.02.06-.04.08-.13.1.05.75-.39c3.76-.2 8.85-2.33 13.67-5.93 1.55-1.17 3-2.38 4.22-3.62l2.74-1.5 3.27 1.89v1.33a33.58 33.58 0 0 0-1.98 8.2c-.66 5.46-.08 10.49 1.32 13.88l.4.23-.18.33z"/>
</svg>
