<svg xmlns="http://www.w3.org/2000/svg" viewBox="0 0 44 30.92">
  <g stroke="#000">
    <path fill="#a05a2c" stroke-width=".2" d="M40.28 26.94 1.78 4.71c-.1-.04-.2-.08-.3-.14C.23 3.85-.26 2.34.4 1.21 1.04.09 2.59-.24 3.84.48l.23.15 38.55 22.25Z"/>
    <path stroke-width=".23" d="m43.74 20.07-.04-.03-6.19 10.72-6.48-3.74 6.23-10.78-.01-.01.01-.01.03-.03.02.01.2-.1a7.34 7.34 0 0 0 3.62-1.57 9.7 9.7 0 0 0 1.11-.96l.73-.39.86.5v.35a8.88 8.88 0 0 0-.52 2.17 7.73 7.73 0 0 0 .35 3.67l.1.06-.04.09Z"/>
  </g>
</svg>
